<svg xmlns="http://www.w3.org/2000/svg" xmlns:xlink="http://www.w3.org/1999/xlink" width="99.961" height="87.875" viewBox="0 0 799.688 703">
  <metadata><?xpacket begin="﻿" id="W5M0MpCehiHzreSzNTczkc9d"?>
<x:xmpmeta xmlns:x="adobe:ns:meta/" x:xmptk="Adobe XMP Core 5.6-c138 79.159824, 2016/09/14-01:09:01        ">
   <rdf:RDF xmlns:rdf="http://www.w3.org/1999/02/22-rdf-syntax-ns#">
      <rdf:Description rdf:about=""/>
   </rdf:RDF>
</x:xmpmeta>
<?xpacket end="w"?></metadata>
<defs>
    <style>
      .cls-1 {
        fill-rule: evenodd;
        filter: url(#filter);
      }
    </style>
    <filter id="filter" x="0.156" y="0" width="799.688" height="703" filterUnits="userSpaceOnUse">
      <feFlood result="flood" flood-color="#fff"/>
      <feComposite result="composite" operator="in" in2="SourceGraphic"/>
      <feBlend result="blend" in2="SourceGraphic"/>
    </filter>
  </defs>
  <path class="cls-1" fill='currentColor' stroke='currentColor' d="M735.241,65.265a221.425,221.425,0,0,0-313.117.17L400.254,87.3,378.047,65.1a221.222,221.222,0,0,0-313.118-.339A219.179,219.179,0,0,0,.17,221.393c0,59.163,23.225,114.6,65.1,156.467L383.641,696.22a22.715,22.715,0,0,0,32.21.169L734.9,378.539A221.813,221.813,0,0,0,735.241,65.265Zm-32.55,280.9L399.745,647.907,97.478,345.651A175.492,175.492,0,1,1,345.667,97.474l38.313,38.311a22.817,22.817,0,0,0,32.379,0l37.975-37.972A175.612,175.612,0,0,1,702.691,346.161Z" transform="translate(-0.156)"/>
</svg>
